<svg xmlns="http://www.w3.org/2000/svg" xmlns:xlink="http://www.w3.org/1999/xlink" width="32" height="32" viewBox="0 0 32 32" fill="none">
<path d="M27.6947 23C27.883 22.6618 28 22.2808 28 21.9386L28 10.0614C28 9.71919 27.8831 9.33824 27.6947 9.00006L16 16L27.6947 23Z"   fill="#7F3A86" >
</path>
<path d="M17.0392 29.7433L26.9608 23.8047C27.2466 23.6336 27.5064 23.3382 27.6947 23L16 16L4.30534 23C4.49366 23.3382 4.7535 23.6337 5.03923 23.8047L14.9608 29.7433C15.5323 30.0855 16.4677 30.0855 17.0392 29.7433Z"   fill="#662579" >
</path>
<path d="M27.6947 8.99996C27.5064 8.6617 27.2465 8.36629 26.9608 8.19521L17.0392 2.25662C16.4677 1.91446 15.5323 1.91446 14.9608 2.25662L5.03922 8.19521C4.46761 8.53729 4 9.37709 4 10.0613L4 21.9386C4 22.2807 4.11694 22.6618 4.30533 23L16 16L27.6947 8.99996Z"   fill="#9A5196" >
</path>
<path d="M16.0385 24C11.6061 24 8 20.4112 8 16C8 11.5888 11.6061 8 16.0385 8C18.8458 8 21.4674 9.47569 22.919 11.8618L19.4765 13.9265C18.7492 12.736 17.4399 12 16.0385 12C13.8222 12 12.0193 13.7944 12.0193 16C12.0193 18.2056 13.8222 20 16.0385 20C17.4362 20 18.7421 19.2681 19.4707 18.0832L22.9205 20.1359C21.4692 22.5234 18.8467 24 16.0385 24Z"   fill="#FFFFFF" >
</path>
<path d="M25.0001 13L25.0001 13.9974L22.9999 13.9974L22.9999 13L22.0001 13L22.0001 13.9974L21 13.9974L21 15L22.0001 15L22.0001 16.9948L21 16.9948L21 18L22.0001 18L22.0001 19L22.9999 19L23 18L25.0001 18L25.0001 19L25.9999 19L25.9999 18L27 18L27 17L25.9999 17L25.9999 15L27 15L27 13.9974L25.9999 13.9974L25.9999 13L25.0001 13ZM25.0001 15L25.0001 17L22.9999 16.9948L22.9999 15L25.0001 15Z" fill-rule="evenodd"  fill="#FFFFFF" >
</path>
</svg>
