<svg xmlns="http://www.w3.org/2000/svg" xmlns:xlink="http://www.w3.org/1999/xlink" width="32" height="32" viewBox="0 0 32 32" fill="none">
<circle cx="16" cy="16" r="14"   fill="#1794D4" >
</circle>
<path d="M16 7L18 7L18 9L16 9L16 7ZM12 10L10 10L10 12L12 12L12 10ZM14 24C7.90027 24 6.17244 19.8427 6.00155 16.9414C5.97042 16.4128 6.41343 16 6.9429 16L20 16C20.6667 16 22 16 22.5 15C21.3 13.4 22.3333 11.6667 23 11C24 11.5 24.5 13.2 24.5 14C25.5 13.5 27.5 13.5 28 14C27.2 16 25.3333 16.5 24.5 16.5C23.8333 19 20.8 24 14 24ZM7.00001 13L9.00001 13L9.00001 15L7.00001 15L7.00001 13ZM12 13L10 13L10 15L12 15L12 13ZM13 13L15 13L15 15L13 15L13 13ZM18 13L16 13L16 15L18 15L18 13ZM19 13L21 13L21 15L19 15L19 13ZM13 10L15 10L15 12L13 12L13 10ZM18 10L16 10L16 12L18 12L18 10Z" fill-rule="evenodd"  fill="#FFFFFF" >
</path>
</svg>
