<svg xmlns="http://www.w3.org/2000/svg" xmlns:xlink="http://www.w3.org/1999/xlink" width="32" height="32" viewBox="0 0 32 32" fill="none">
<rect  x="1" y="1" width="30" height="30" rx="15"    fill="#FFD663" >
</rect>
<path d="M1.07406 14.5C1.02508 14.9934 1 15.4938 1 16C1 24.2843 7.71573 31 16 31C24.2843 31 31 24.2843 31 16C31 15.4937 30.9749 14.9934 30.9259 14.5C30.1733 22.08 23.778 28 16 28C8.22198 28 1.82665 22.08 1.07406 14.5Z" fill-rule="evenodd"  fill="#FFD04C" >
</path>
<circle cx="5.5" cy="12.5" r="2.5"   fill="#FF759B" fill-opacity="0.2">
</circle>
<circle cx="26.5" cy="12.5" r="2.5"   fill="#FF759B" fill-opacity="0.2">
</circle>
<path   fill-rule="evenodd"  fill="#52565F"  d="M11 9.77778C11.7101 9.77778 12.2857 10.3747 12.2857 11.1111C12.2857 11.602 12.6695 12 13.1429 12C13.6162 12 14 11.602 14 11.1111C14 9.39289 12.6569 8 11 8C9.34315 8 8 9.39289 8 11.1111C8 11.602 8.38376 12 8.85714 12C9.33053 12 9.71429 11.602 9.71429 11.1111C9.71429 10.3747 10.2899 9.77778 11 9.77778">
</path>
<path fill-rule="evenodd"  fill="rgba(82, 86, 95, 1)"  d="M8.11134 10.2685C8.0388 10.5365 8 10.8191 8 11.1111C8 11.602 8.38376 12 8.85714 12C9.33053 12 9.71429 11.602 9.71429 11.1111C9.71429 10.9061 9.75888 10.712 9.83856 10.5385C10.0451 10.0887 10.4876 9.77778 11 9.77778C11.5124 9.77778 11.9549 10.0887 12.1614 10.5385C12.2411 10.712 12.2857 10.9061 12.2857 11.1111C12.2857 11.602 12.6695 12 13.1429 12C13.6162 12 14 11.602 14 11.1111C14 10.8191 13.9612 10.5365 13.8887 10.2685C13.5344 8.95966 12.3753 8 11 8C9.62474 8 8.46562 8.95966 8.11134 10.2685Z">
</path>
<path   fill-rule="evenodd"  fill="#52565F"  d="M21 9.77778C21.7101 9.77778 22.2857 10.3747 22.2857 11.1111C22.2857 11.602 22.6695 12 23.1429 12C23.6162 12 24 11.602 24 11.1111C24 9.39289 22.6569 8 21 8C19.3431 8 18 9.39289 18 11.1111C18 11.602 18.3838 12 18.8571 12C19.3305 12 19.7143 11.602 19.7143 11.1111C19.7143 10.3747 20.2899 9.77778 21 9.77778">
</path>
<path fill-rule="evenodd"  fill="rgba(82, 86, 95, 1)"  d="M18.1113 10.2685C18.0388 10.5365 18 10.8191 18 11.1111C18 11.602 18.3838 12 18.8571 12C19.3305 12 19.7143 11.602 19.7143 11.1111C19.7143 10.9061 19.7589 10.712 19.8386 10.5385C20.0452 10.0887 20.4876 9.77778 21 9.77778C21.5124 9.77778 21.9549 10.0887 22.1614 10.5385C22.2411 10.712 22.2857 10.9061 22.2857 11.1111C22.2857 11.602 22.6695 12 23.1429 12C23.6162 12 24 11.602 24 11.1111C24 10.8191 23.9612 10.5365 23.8887 10.2685C23.5344 8.95966 22.3753 8 21 8C19.6247 8 18.4656 8.95966 18.1113 10.2685Z">
</path>
<path d="M7.89443 16.5528C7.64744 16.0588 7.04677 15.8586 6.55279 16.1056C6.05881 16.3526 5.85858 16.9532 6.10557 17.4472C7.33843 19.9129 11.0509 22 16 22C20.9491 22 24.6616 19.9129 25.8944 17.4472C26.1414 16.9532 25.9412 16.3526 25.4472 16.1056C24.9532 15.8586 24.3526 16.0588 24.1056 16.5528C23.3384 18.0871 20.5246 20 16 20C11.4754 20 8.66157 18.0871 7.89443 16.5528Z" fill-rule="evenodd"  fill="#52565F" >
</path>
</svg>
