<svg xmlns="http://www.w3.org/2000/svg" xmlns:xlink="http://www.w3.org/1999/xlink" width="32" height="32" viewBox="0 0 32 32" fill="none">
<rect x="2" y="2" width="28" height="28"   fill="#FFCA28" >
</rect>
<path d="M21.0615 23.9235L19 25.2877C19.1692 25.7001 20.1846 28 24.0154 28C26.8672 28 28 25.8134 28 24.4628C28 21.7663 26.3692 20.9098 25.2615 20.3864C25.0462 20.2846 24.7932 20.1869 24.5273 20.0842C23.5112 19.6917 22.3077 19.2268 22.3077 18.1896C22.3077 17.8199 22.5385 17.0079 23.6462 17.0079C24.0946 17.0079 24.8231 17.3013 25.2615 18.1896L27.2615 16.7937C26.1769 14.7555 23.9991 14.7 23.5462 14.7C22.8538 14.7 19.7923 15.0648 19.7923 18.2371C19.7923 21.1173 22.393 22.1109 23.0979 22.3802C23.1558 22.4023 23.2009 22.4196 23.2308 22.4326C23.289 22.4579 23.3741 22.4869 23.4774 22.5221C24.1112 22.738 25.4308 23.1876 25.4308 24.4628C25.4308 24.9308 24.8308 25.6366 23.5385 25.6366C22.2462 25.6366 21.2231 24.4311 21.0615 23.9235ZM11.1487 24.1951L9 25.5585C9.19242 26.3037 10.379 28 13.2332 28C16.3376 28 17.041 25.4634 16.9982 24.1951L16.9982 15L14.3557 15L14.3557 24.1951C14.3557 24.6628 13.8698 25.6378 12.9205 25.6378C11.9713 25.6378 11.317 24.7024 11.1487 24.1951Z" fill-rule="evenodd"  fill="#3E3E3E" >
</path>
</svg>
