<svg xmlns="http://www.w3.org/2000/svg" xmlns:xlink="http://www.w3.org/1999/xlink" width="32" height="32" viewBox="0 0 32 32" fill="none">
<path d="M14.8269 2.29872C15.5373 1.90132 16.4627 1.89953 17.1725 2.29872C20.7435 4.27064 24.3156 6.23947 27.886 8.21259C28.5576 8.58227 29.0068 9.31264 28.9999 10.0688L28.9999 21.9327C29.0049 22.7202 28.5113 23.468 27.8029 23.8293C24.2436 25.7904 20.6861 27.7538 17.1275 29.7149C16.4024 30.12 15.4585 30.0888 14.756 29.6504C13.6889 29.0459 12.62 28.4444 11.5529 27.8405C10.9578 27.4938 10.8524 27.387 11.5122 27.1258C11.982 26.9398 12.3668 26.7652 12.7759 26.5496C12.8794 26.4803 13.0057 26.5069 13.1049 26.5688C14.0174 27.0801 14.9218 27.6062 15.8373 28.1126C16.0075 28.2086 16.1796 28.1099 16.3315 28.0228C19.8129 26.025 23.3661 24.1462 26.8793 22.2048C27.0086 22.144 27.0802 22.0098 27.0697 21.8713C27.0721 17.9576 27.0703 14.0433 27.0709 10.1297C27.0857 9.9725 26.9926 9.828 26.8472 9.76368C23.3003 7.81161 19.7552 5.85654 16.2089 3.90396C16.086 3.8214 15.9143 3.82116 15.7911 3.90336C12.2448 5.85654 8.70033 7.8134 5.15402 9.76538C5.00912 9.8298 4.91187 9.97191 4.92912 10.1297C4.92973 14.0433 4.92912 17.9576 4.92912 21.8718C4.91682 22.007 4.9965 22.1431 5.12198 22.2012C5.12198 22.2012 8.5412 24.4213 9.73913 24.0014C10.2578 23.8196 10.6214 23.3024 10.6115 22.7642C10.6164 18.8734 10.6091 14.982 10.6152 11.0918C10.6022 10.9191 10.7699 10.7764 10.9417 10.7926C11.3964 10.7896 11.8517 10.7866 12.3064 10.7938C12.4962 10.7896 12.6269 10.9756 12.6034 11.1496C12.6016 15.0651 12.6083 18.9806 12.6003 22.896C12.6016 23.9395 12.1629 25.075 11.1752 25.5855C9.95843 26.2015 8.45451 26.0709 7.25244 25.4802C6.2118 24.9726 5.21871 24.3736 4.19655 23.8298C3.48622 23.4705 2.99509 22.7197 3.00009 21.9328L3.00009 10.0688C2.99264 9.29698 3.45969 8.55335 4.15216 8.18906C7.71082 6.22641 11.2689 4.26227 14.8269 2.29872ZM17.9315 10.5169C19.4836 10.4192 21.1452 10.459 22.5419 11.2062C23.6232 11.7788 24.2227 12.9806 24.2418 14.1546C24.2116 14.313 24.0422 14.4003 23.8875 14.3895C23.4372 14.3889 22.9868 14.3955 22.5364 14.3865C22.3454 14.3937 22.2344 14.2215 22.2104 14.0565C22.081 13.4948 21.7675 12.9384 21.2265 12.6675C20.0483 12.091 17.7328 11.9885 16.5951 12.7602C16.1651 13.048 16.0345 13.629 16.188 14.0969C16.5729 14.9905 18.1889 14.9376 19.5488 15.0671C20.4844 15.1562 21.7086 15.3466 22.7416 15.7008C23.5012 15.9573 24.2443 16.4559 24.5043 17.2332C24.8444 18.2749 24.6953 19.52 23.9369 20.3563C23.3219 21.0444 22.4261 21.419 21.5327 21.6224C20.3442 21.8814 19.1108 21.888 17.9039 21.773C15.7914 21.5377 13.5397 20.4689 13.6329 18.0172C13.6416 17.8557 13.8061 17.7431 13.9643 17.7564C14.4178 17.7528 14.8713 17.7516 15.3248 17.757C15.5059 17.7443 15.6402 17.8973 15.6495 18.0641C15.7332 18.5994 15.939 19.1611 16.4166 19.4784C17.5979 20.2232 20.9237 20.3682 22.1193 19.4219C22.4957 19.0998 22.6073 18.5609 22.5055 18.0973C22.3953 17.7058 21.9763 17.5234 21.6165 17.4042C20.7357 17.1319 19.819 17.0366 18.9026 16.9414C17.8979 16.837 16.8935 16.7326 15.9372 16.395C15.1948 16.1386 14.4769 15.6539 14.1917 14.9085C13.7937 13.8537 13.9761 12.5489 14.814 11.7409C15.6309 10.9371 16.8102 10.6277 17.9315 10.5169Z" fill-rule="evenodd"  fill="#8CC84B" >
</path>
</svg>
