<svg xmlns="http://www.w3.org/2000/svg" xmlns:xlink="http://www.w3.org/1999/xlink" width="32" height="32" viewBox="0 0 32 32" fill="none">
<path d="M9.03825 5.85185C9.03825 3.72453 10.8193 2 13.0164 2L18.9836 2C21.1807 2 22.9617 3.72453 22.9617 5.85185L22.9617 12.3704C22.9617 14.1704 21.4547 15.6296 19.5956 15.6296L12.2514 15.6296C10.0543 15.6296 8.27322 17.3542 8.27322 19.4815L8.27322 22.7407L5.97814 22.7407C3.78107 22.7407 2 21.0162 2 18.8889L2 13.1111C2 10.9838 3.78107 9.25926 5.97814 9.25926L15.9235 9.25926L15.9235 8.51851L9.03825 8.51851L9.03825 5.85185ZM13.4754 5.40741C13.4754 6.14378 12.8589 6.74074 12.0984 6.74074C11.3378 6.74074 10.7213 6.14378 10.7213 5.40741C10.7213 4.67103 11.3378 4.07407 12.0984 4.07407C12.8589 4.07407 13.4754 4.67103 13.4754 5.40741Z" fill-rule="evenodd"  fill="url(#linear_fill_DtDuvdKGiF1kuXRRyTcKM)" >
</path>
<path d="M22.9618 26.1482C22.9618 28.2755 21.1807 30 18.9836 30L13.0164 30C10.8193 30 9.03826 28.2755 9.03826 26.1482L9.03826 19.6296C9.03826 17.8296 10.5453 16.3704 12.4044 16.3704L19.7486 16.3704C21.9457 16.3704 23.7268 14.6459 23.7268 12.5185L23.7268 9.25928L26.0219 9.25928C28.2189 9.25928 30 10.9838 30 13.1111L30 18.8889C30 21.0162 28.2189 22.7408 26.0219 22.7408L16.0765 22.7408L16.0765 23.4815L22.9618 23.4815L22.9618 26.1482ZM18.5246 26.5926C18.5246 25.8562 19.1411 25.2593 19.9016 25.2593C20.6622 25.2593 21.2787 25.8562 21.2787 26.5926C21.2787 27.329 20.6622 27.9259 19.9016 27.9259C19.1411 27.9259 18.5246 27.329 18.5246 26.5926Z" fill-rule="evenodd"  fill="url(#linear_fill_4beDcOZRbodo9U8pkz9ke)" >
</path>
<defs>
<linearGradient id="linear_fill_DtDuvdKGiF1kuXRRyTcKM" x1="12.479995727539062" y1="2" x2="12.479995727539062" y2="22.740005493164062" gradientUnits="userSpaceOnUse">
<stop offset="0" stop-color="#327EBD"  />
<stop offset="1" stop-color="#1565A7"  />
</linearGradient>
<linearGradient id="linear_fill_4beDcOZRbodo9U8pkz9ke" x1="19.518264770507812" y1="9.25927734375" x2="19.518264770507812" y2="29.999282836914062" gradientUnits="userSpaceOnUse">
<stop offset="0" stop-color="#FFDA4B"  />
<stop offset="1" stop-color="#F9C600"  />
</linearGradient>
</defs>
</svg>
