<svg xmlns="http://www.w3.org/2000/svg" xmlns:xlink="http://www.w3.org/1999/xlink" width="32" height="32" viewBox="0 0 32 32" fill="none">
<path d="M22.8971 15.9821C23.524 17.2623 24.0365 18.5016 24.4162 19.667C26.1846 19.1587 29.7185 18.07 29.7185 15.9759C29.7185 13.9013 26.0359 12.8228 24.3572 12.3509C23.9881 13.5088 23.4955 14.7321 22.8971 15.9821ZM19.4625 21.7849C18.638 22.9422 17.7932 23.9844 16.9478 24.8809C18.2221 26.0696 20.988 28.571 22.85 27.526C24.7202 26.4763 23.9326 22.7734 23.5256 21.1777C22.283 21.4562 20.9129 21.6602 19.4625 21.7849ZM12.5824 21.8008C11.1286 21.6865 9.76834 21.4969 8.53957 21.2333C8.11258 22.8946 7.26143 26.47 9.12362 27.5111C10.9945 28.557 14.0753 25.9008 15.1576 24.8857C14.2816 23.9741 13.4123 22.9332 12.5824 21.8008ZM9.12123 16.0062C8.52695 14.7544 8.03451 13.5165 7.65904 12.3326C5.94207 12.8033 2.28149 13.874 2.28149 15.9759C2.28149 18.0791 6.00369 19.2776 7.64085 19.732C8.01977 18.5341 8.51925 17.2766 9.12123 16.0062ZM12.5603 10.2265C13.3831 9.1006 14.2444 8.06754 15.1159 7.16013C13.8747 6.00983 10.9735 3.45416 9.1037 4.50354C7.23592 5.55179 8.09125 9.02071 8.55709 10.8297C9.79875 10.5569 11.1494 10.3533 12.5603 10.2265ZM23.1147 12.0406C22.2536 11.85 21.3365 11.6942 20.3793 11.5771C21.0139 12.5416 21.6044 13.5333 22.1545 14.5453C22.534 13.6841 22.8562 12.844 23.1147 12.0406ZM17.7798 10.1145C17.1974 9.3623 16.6054 8.66897 16.0143 8.04811C15.414 8.67618 14.8169 9.36848 14.234 10.1137C15.4153 10.0601 16.5985 10.0603 17.7798 10.1145ZM8.90322 12.0275C9.16398 12.8424 9.48329 13.6862 9.8565 14.5444C10.3971 13.5285 10.9866 12.5372 11.623 11.5748C10.672 11.69 9.75918 11.8418 8.90322 12.0275ZM8.88556 20.0347C9.74126 20.2153 10.6679 20.3594 11.6503 20.4657C11.0045 19.4942 10.406 18.4933 9.85796 17.4669C9.47678 18.3435 9.15044 19.2055 8.88556 20.0347ZM14.2448 21.8971C14.8365 22.6531 15.4424 23.356 16.0498 23.9915C16.6369 23.3647 17.2268 22.6608 17.811 21.891C16.6231 21.9424 15.4328 21.9423 14.2448 21.8971ZM23.1742 19.9809C22.9057 19.1657 22.5677 18.3084 22.1667 17.4222C21.6149 18.4536 21.015 19.4607 20.3757 20.4435C21.3652 20.3284 22.3043 20.1734 23.1742 19.9809ZM19.4483 10.2281C20.8633 10.3569 22.2149 10.5641 23.4595 10.8426C23.8681 9.22726 24.7006 5.51254 22.8303 4.4666C20.9781 3.43089 18.1695 5.98441 16.9124 7.15949C17.7698 8.05519 18.6239 9.09004 19.4483 10.2281ZM16 13.3785C17.4796 13.3785 18.6789 14.5415 18.6789 15.9759C18.6789 17.4105 17.4796 18.5734 16 18.5734C14.5206 18.5734 13.3211 17.4105 13.3211 15.9759C13.3211 14.5415 14.5206 13.3785 16 13.3785ZM18.7473 20.5941C19.7595 19.1198 20.6771 17.5812 21.4757 15.9881C20.6675 14.4086 19.7561 12.8771 18.7369 11.4166C16.9178 11.2821 15.0875 11.2825 13.2684 11.4158C12.2404 12.8764 11.3276 14.4119 10.5377 16.0058C11.3314 17.603 12.2509 19.1415 13.2838 20.6044C15.1016 20.7186 16.9301 20.72 18.7473 20.5941ZM1 15.9759C1 13.1564 4.98831 11.7764 7.3149 11.1357C6.73664 8.8928 5.96751 4.82802 8.46163 3.42814C10.9663 2.02237 14.3044 4.68442 16.0139 6.27318C17.7284 4.66843 20.9753 1.99495 23.4704 3.39016C25.9772 4.79148 25.2661 8.92478 24.7004 11.1537C26.9903 11.7923 31 13.1835 31 15.9759C31 18.7523 27.0073 20.221 24.7653 20.8625C25.3436 23.1184 25.9956 27.1963 23.4922 28.6014C20.9966 30.0021 17.7809 27.3864 16.0554 25.7722C14.325 27.3945 10.9973 29.9932 8.48327 28.5877C5.98596 27.1909 6.71658 23.1842 7.29698 20.9289C4.98416 20.2888 1 18.7874 1 15.9759Z" fill-rule="evenodd"  fill="#53C1DE" >
</path>
</svg>
